<svg xmlns="http://www.w3.org/2000/svg" viewBox="0 0 1920 1080"><defs><style>.cls-1{fill:#130f10;}.cls-2{fill:#d92402;}.cls-3{fill:#d12302;}.cls-4{fill:#a71f04;}.cls-5{fill:#b72004;}.cls-6{fill:#aa1f04;}.cls-7{fill:#a51f04;}.cls-8{fill:#e42601;}.cls-9{fill:#dd2402;}.cls-10{fill:#cd2202;}.cls-11{fill:#ce2202;}.cls-12{fill:#c52203;}.cls-13{fill:#48150a;}.cls-14{fill:#35130b;}.cls-15{fill:#9e1e05;}.cls-16{fill:#b32004;}.cls-17{fill:#bc2103;}.cls-18{fill:#b52004;}.cls-19{fill:#ca2203;}.cls-20{fill:#ab1f04;}.cls-21{fill:#6f1907;}.cls-22{fill:#ca2202;}.cls-23{fill:#b42004;}.cls-24{fill:#861b06;}.cls-25{fill:#8e1b06;}</style></defs><title>BackGround</title><g id="Фон"><rect class="cls-1" width="1920" height="1080"/></g><g id="Слой_2" data-name="Слой 2"><circle class="cls-2" cx="47" cy="384" r="8"/><circle class="cls-3" cx="40.5" cy="443.5" r="2.5"/><circle class="cls-4" cx="42" cy="106" r="5"/><circle class="cls-5" cx="96.5" cy="191.5" r="8.5"/><circle class="cls-6" cx="117.5" cy="254.5" r="2.5"/><circle class="cls-2" cx="69" cy="421" r="25"/><circle class="cls-7" cx="-5" cy="735" r="28"/><circle class="cls-8" cx="80.5" cy="652.5" r="12.5"/><circle class="cls-9" cx="171" cy="623" r="5"/><circle class="cls-10" cx="130.5" cy="954.5" r="35.5"/><circle class="cls-11" cx="179" cy="917" r="12"/><circle class="cls-12" cx="94" cy="920" r="4"/><circle class="cls-10" cx="8" cy="971" r="11"/><circle class="cls-13" cx="27.5" cy="910.5" r="44.5"/><circle class="cls-10" cx="18.5" cy="954.5" r="3.5"/><circle class="cls-13" cx="85.5" cy="856.5" r="13.5"/><circle class="cls-14" cx="32" cy="1032" r="32"/><circle class="cls-15" cx="59.5" cy="1063.5" r="13.5"/><circle class="cls-16" cx="71" cy="777" r="26"/><circle class="cls-5" cx="135" cy="220" r="28"/><circle class="cls-17" cx="74.5" cy="618.5" r="14.5"/><circle class="cls-17" cx="63.5" cy="537.5" r="45.5"/><circle class="cls-8" cx="121" cy="597" r="39"/><circle class="cls-18" cx="128.5" cy="519.5" r="4.5"/><circle class="cls-19" cx="45" cy="330" r="15"/><circle class="cls-20" cx="38" cy="794" r="3"/><circle class="cls-16" cx="55" cy="733" r="8"/><circle class="cls-7" cx="44.5" cy="729.5" r="8.5"/><circle class="cls-21" cx="-5.5" cy="85.5" r="30.5"/><circle class="cls-22" cx="-22" cy="386" r="50"/><circle class="cls-23" cx="22.5" cy="37.5" r="9.5"/><circle class="cls-24" cx="-2" cy="26" r="16"/><circle class="cls-25" cx="80" cy="124" r="16"/><circle class="cls-4" cx="69.5" cy="95.5" r="17.5"/><circle class="cls-4" cx="64.5" cy="270.5" r="52.5"/></g><g id="Слой_5" data-name="Слой 5"><circle class="cls-2" cx="1875" cy="384" r="8"/><circle class="cls-3" cx="1881.5" cy="443.5" r="2.5"/><circle class="cls-4" cx="1880" cy="106" r="5"/><circle class="cls-5" cx="1825.5" cy="191.5" r="8.5"/><circle class="cls-6" cx="1804.5" cy="254.5" r="2.5"/><circle class="cls-2" cx="1853" cy="421" r="25"/><circle class="cls-7" cx="1927" cy="735" r="28"/><circle class="cls-8" cx="1841.5" cy="652.5" r="12.5"/><circle class="cls-9" cx="1751" cy="623" r="5"/><circle class="cls-10" cx="1791.5" cy="954.5" r="35.5"/><circle class="cls-11" cx="1743" cy="917" r="12"/><circle class="cls-12" cx="1828" cy="920" r="4"/><circle class="cls-10" cx="1914" cy="971" r="11"/><circle class="cls-13" cx="1894.5" cy="910.5" r="44.5"/><circle class="cls-10" cx="1903.5" cy="954.5" r="3.5"/><circle class="cls-13" cx="1836.5" cy="856.5" r="13.5"/><circle class="cls-14" cx="1892" cy="1032" r="32"/><circle class="cls-15" cx="1862.5" cy="1063.5" r="13.5"/><circle class="cls-16" cx="1851" cy="777" r="26"/><circle class="cls-5" cx="1787" cy="220" r="28"/><circle class="cls-17" cx="1847.5" cy="618.5" r="14.5"/><circle class="cls-17" cx="1858.5" cy="537.5" r="45.5"/><circle class="cls-8" cx="1801" cy="597" r="39"/><circle class="cls-18" cx="1793.5" cy="519.5" r="4.5"/><circle class="cls-19" cx="1877" cy="330" r="15"/><circle class="cls-20" cx="1884" cy="794" r="3"/><circle class="cls-16" cx="1867" cy="733" r="8"/><circle class="cls-7" cx="1877.5" cy="729.5" r="8.5"/><circle class="cls-21" cx="1927.5" cy="85.5" r="30.5"/><circle class="cls-22" cx="1944" cy="386" r="50"/><circle class="cls-23" cx="1899.5" cy="37.5" r="9.5"/><circle class="cls-24" cx="1924" cy="26" r="16"/><circle class="cls-25" cx="1842" cy="124" r="16"/><circle class="cls-4" cx="1852.5" cy="95.5" r="17.5"/><circle class="cls-4" cx="1857.5" cy="270.5" r="52.5"/></g></svg>