<?xml version="1.0" encoding="utf-8"?>
<!-- Generator: Adobe Illustrator 24.0.1, SVG Export Plug-In . SVG Version: 6.00 Build 0)  -->
<svg version="1.1" xmlns="http://www.w3.org/2000/svg" xmlns:xlink="http://www.w3.org/1999/xlink" x="0px" y="0px"
	 viewBox="0 0 1920 1080" style="enable-background:new 0 0 1920 1080;" xml:space="preserve">
<style type="text/css">
	.st0{fill:#130F10;}
	.st1{display:none;}
	.st2{display:none;fill:#FFFFFF;}
	.st3{fill:#D92402;}
	.st4{fill:#D12302;}
	.st5{fill:#A71F04;}
	.st6{fill:#B72004;}
	.st7{fill:#AA1F04;}
	.st8{fill:#A51F04;}
	.st9{fill:#E42601;}
	.st10{fill:#DD2402;}
	.st11{fill:#CD2202;}
	.st12{fill:#CE2202;}
	.st13{fill:#C52203;}
	.st14{fill:#48150A;}
	.st15{fill:#35130B;}
	.st16{fill:#9E1E05;}
	.st17{fill:#B32004;}
	.st18{fill:#BC2103;}
	.st19{fill:#B52004;}
	.st20{fill:#CA2203;}
	.st21{fill:#AB1F04;}
	.st22{fill:#6F1907;}
	.st23{fill:#CA2202;}
	.st24{fill:#B42004;}
	.st25{fill:#861B06;}
	.st26{fill:#8E1B06;}
</style>
<g id="Фон">
	<rect x="0" y="0" class="st0" width="1920" height="1080"/>
</g>
<g id="Слой_1" class="st1">
</g>
<g id="Слой_3">
	<path class="st2" d="M1330.64,381.8c-2.23-6.7-1.12-7.82,0-16.75c1.19-9.49-0.55-25.36-2.79-42.99
		c-2.15-16.92-16.19-53.04-18.42-53.04c-2,0-29.03,39.08-35.73,44.67c-2.22,1.85-13.81,15.78-15.63,17.87
		c-7.82,8.93-8.58,10.06-10.05,12.28c-6.5,9.83-13.4,25.68-13.4,25.68s-11.67-8.34-20.1-18.98c-8.82-11.13-15.63-30.15-17.87-26.8
		c-3.1,4.65-13.9,31.68-14.52,56.95c-0.44,18.02,4.73,32.82-1.12,48.02c-2.76,7.17-9.56,13.9-13.26,18.8
		c-0.09,0.12-0.18,0.23-0.29,0.35c-1.17,1.32-8.78,8.76-8.78,8.76c-0.56,0.53-4.97,4.03-7.82,7.82c-3.35,4.47-5.58,10.05-5.58,10.05
		s5.58-4.47,7.82-6.7c2.43-2.43,5.58-5.58,5.58-5.58c1.6,1.52-5.95,8.13-8.93,16.75c-4.47,12.9-5.58,32.38-5.58,32.38
		s4.34-16.15,11.17-29.03c4.03-7.6,11.28-13.57,12.71-15.73c0.18-0.28,0.61-0.11,0.59,0.22c-0.28,3.47-3.43,14.87-4.36,24.45
		c-1.89,19.6,2.21,49.13,2.23,49.13c0.04,0.01,12.94-51.73,16.07-64.28c0.11-0.44,0.75-0.37,0.77,0.08
		c0.15,4.64-2.5,25.18-1.21,37.4c2.26,21.4,6.7,33.5,6.7,33.5s-4.29-26.82,2.23-48.02c4.47-14.52,10.05-24.57,12.28-27.92
		c0.75-1.13,1.96,3.51,3.35,5.58c4.47,6.7,11.17,12.28,11.17,12.28s-7.21-16.23-8.68-20.33c-0.12-0.33,0.23-0.63,0.53-0.46
		c3.09,1.69,14.64,8.31,23.78,17.44c3.35,3.35,1.12,7.82,2.23,12.28c1.31,5.22,5.96,11.67,12.28,14.52
		c9.69,4.36,22.13,3.63,23.45,3.35c14.69-3.13,38.93-18.94,49-25.82c1.27-0.87,2.88,0.48,2.25,1.89
		c-2.41,5.35-8.82,16.06-6.58,18.35c0.44,0.45,6.08-2.32,6.7-2.23c4.49,0.62,1.68,9.51,2.23,20.1c0.64,12.29,7.03,25,6.76,28.3
		c-0.02,0.29-0.37,0.42-0.57,0.21c-3.56-3.58-24.73-22.93-49.74-22.93c-2.23,0-4.55-0.36-5.58,0c-0.69,0.24-1.06,1.91-2.23,2.23
		c-3.3,0.92-11.69,1.04-14.52,2.23c-10.64,4.49-16.68,12.02-21.77,16.19c-3.73,3.05-8.91,6.13-16.19,13.96
		c-1.7,1.83-2.37,4.36-4.47,6.7c-2.41,2.69-12.2,17.4-13.4,20.1c-1.64,3.69-2.23,7.23-2.23,11.17c0,8.93-0.62,17.79,2.23,18.98
		c2.46,1.03,3.35-2.23,4.47-2.23c1.3,0,2.28,4.53,3.35,6.7c1.28,2.6,3.59,0,4.47-1.12c2.43-3.09,2.38-8.51,2.23-12.28
		c-0.23-5.95-1.07-11.58-0.56-11.72c0.29-0.08,2.38,13.24,2.79,15.07c0.39,1.76,0.66,4.08,1.12,5.58c0.47,1.54,1.12,2.23,1.12,2.23
		c2.23,2.23,5.38,1.94,5.58,0c0.35-3.27,1.12-11.17,1.12-15.63c0-9.73,1.45-13.4,2.23-13.4c1.12,0,0.15,25.26,5.58,24.57
		c0.68-0.09,1.33-0.82,2.23-2.23c0.8-1.25,1.78-3.12,3.35-4.47c1.39-1.19,1.51,0.44,3.35-1.12c3.3-2.8,7.18-7.98,7.82-11.17
		c1.12-5.58,1.91-15.15,4.47-18.98c2.23-3.35,13.4-16.75,13.4-16.75s-1.41,16.58,0,24.57c1.35,7.61,5.9,15.23,8.93,16.75
		c8.93,4.47,59.74,4.57,65.88,15.63c2.79,5.02-0.17,16.05,1.12,25.68c1.56,11.7,5.6,21.77,7.67,26.37c0.36,0.8-0.52,1.59-1.28,1.15
		c-9.01-5.24-41.41-23.12-88.46-38.13c-23.71-7.56-34.47-9.24-42.99-3.91c-5.38,3.36-13.67,8.66-17.87,15.63
		c-2.72,4.52-3.54,11.55-6.7,17.87c-2.23,4.47-5.33,3.82-7.82,5.58c-4.27,3.03-7.83,7.69-10.61,12.84
		c-6.3,11.68-5.6,27.81-0.56,40.76c8.24,21.14,27.8,29.86,35.73,34.62c16.75,10.05,30.69,8.72,41.32,14.52
		c2.56,1.4,1.12,4.47,1.12,10.05c0,3.38,3.58,9.78,7.82,11.17c6.63,2.16,11.37,1.21,14.52-2.23c2.82-3.09,3.97,0.45,6.7,3.35
		c1.95,2.07,5.37,3.54,7.82,3.35c5.19-0.4,7.31-4.44,12.28-4.47c2.78-0.02,6.7,5.58,12.28,5.58c5.47,0,13.27-3.43,18.98-7.82
		c2.88-2.21,6.41-4.22,9.7-2.7c5.11,2.36,13.88,5.41,26.03,6.05c19.09,1.01,41.4-6.79,47.46-10.61
		c11.62-7.32,21.81-18.57,25.69-23.12c1.05-1.23,2.62-1.87,4.23-1.7c7.4,0.78,15.41,4.98,46.58,3.05
		c14.63-0.91,40.2-11.17,63.65-14.52c17.31-2.47,26.37-0.38,27.92,4.47c0.51,1.59,2.87,6.73-1.12,10.05
		c-7.94,6.61-23.45,12.28-23.45,12.28l19.87-5.42c3.97-1.08,7.61-3.24,10.27-6.38c1.06-1.25,1.94-2.59,2.24-3.84
		c0.99-4.06-0.41-8.65-1.12-10.05c-3.59-7.09-13.4-12.28-13.4-12.28s14.25-8.82,25.68-18.98c7.96-7.07,13.83-16.06,15.63-17.87
		c0.8-0.8,6.74-10.06,11.17-11.17c4.47-1.12,14.52-4.47,14.52-4.47h-15.63c0,0,7.54-8.65,10.05-21.22
		c3.35-16.75,18.39-35.39,21.22-37.97c7.29-6.64,16.75-12.28,16.75-12.28s-7.44,0.72-14.52,4.47c-6.14,3.25-11.93,8.33-13.4,10.05
		c0,0,0.05-25.33,4.47-33.5c2.32-4.3,11.17-14.52,11.17-14.52l-15.63,10.05c0,0,4.15-21.93-6.7-44.67
		c-5.26-11.02-11.08-17.92-11.17-25.68c-0.16-14.74,13.4-25.68,13.4-25.68c-3.4,1.39-9.19,4.29-14.52,10.05
		c-4.21,4.55-6.54,9.16-7.82,12.28c-3.66-4.28-8.57-11.82-16.75-18.98c-5.44-4.76-12.33-11.1-15.63-17.87
		c-6.97-14.3-11.17-29.03-11.17-29.03v15.63c0,0-5.75-9.32-10.05-22.33c-2.29-6.93-3.35-15.63-2.23-22.33
		c1.1-6.6,6.13-12.08,12.28-15.63c10.26-5.92,22.33-7.82,22.33-7.82s-14.56-1.15-23.45,2.23c-6.47,2.46-13.4,8.93-13.4,8.93
		c0-10.05,0.67-27.81,13.96-39.64c12.29-10.94,25.95-13.72,31.27-14.52c1.83-0.27,28.33-3.85,49.13,13.4
		c15.37,12.75,24.01,37.41,24.01,37.41s-0.54-10.33-2.23-18.98c-1.1-5.62-1.56-9.61-1.12-10.05c0.55-0.55,3.53-0.41,8.93,1.12
		c5.49,1.54,13.4,5.58,13.4,5.58s-34.85-35.6-42.13-42.26c-0.4-0.36-0.08-1.02,0.45-0.93c4.01,0.68,14.88,0.75,25.49-0.93
		c6.07-0.96,18.42-9.49,18.42-9.49s-18.14,5.23-31.27,3.35c-17.57-2.52-35.6-13.45-35.73-16.75l15.63-6.7c0,0-5.26,1.06-10.05,1
		c-2.21-0.03-4.56-0.29-6.7-1c-2.25-0.75-4-1.5-4.9-1.91c-0.37-0.17-0.71-0.35-1.06-0.56c-1.85-1.15-10.79-6.46-10.79-6.46
		s1.16-1.04,4.47-3.35c6.62-4.63,14.52-11.17,14.52-11.17l-25.68,12.28c-15.63-6.7-35.73-12.28-58.07-6.7
		c-28.6,7.15-41.66,19.79-44.67,22.33c-14.52,12.28-38.65,47.7-43.55,61.42c-5.58,15.63-5.58,23.45-5.58,23.45
		c-2.56,0.85-5.34-1.57-7.82-2.23c-4.98-1.33-10.05,0-10.05,0s4.27,0.33,7.82,2.23c2.15,1.15,5.26,2.92,5.58,3.35
		c3.35,4.47,0.77,10.98,0,17.87c-2.23,20.1-1.74,50.16,5.58,74.82c9.27,31.19,33.5,62.53,44.67,78.17c0,0-8.87,7.62-12.28,11.17
		c-9.49,9.87-8.93,26.8-8.93,26.8s2.7-13.06,10.05-21.22c6.49-7.2,15.63-6.7,20.1-1.12c7.18,8.98,13.4,24.29,13.4,44.67
		c0,12.28-5.58,42.43-20.1,59.18c-4.05,4.68-33.31,25.83-42.5,31.49c-1.35,0.83-3.07-0.25-2.9-1.83
		c1.18-11.18,2.95-23.62,1.85-39.71c-1.54-22.55-8.93-36.85-10.05-44.67c-1.92-13.45-11.17-69.23-13.4-107.2
		c-1.3-22.14-18.69-43.8-31.27-59.18c-4.82-5.9-13.18-10.93-21.22-16.75c-3.85-2.79-9.92-4.43-11.17-8.93
		c-0.79-2.86-0.56-6.84-1.12-10.05c-0.78-4.47-2.32-7.91-3.35-8.93c-1.12-1.12-11.13,3.97-15.63,8.93
		c-2.35,2.59-2.23,4.47-5.58,4.47c-7.53,0-17.15-9.03-20.23-12.33c-0.17-0.18,0.04-0.46,0.26-0.34c2.48,1.45,8.17,4.65,12.16,5.96
		c5.75,1.9,12.28,0,12.28,0s-5.58-1.12-11.17-4.47c-5.07-3.04-5.58-5.58-5.58-5.58c3.38,0.2,13.4,2.23,24.57,0
		c6.57-1.31,14.52-12.28,14.52-12.28s-7.56,5.58-15.63,5.58c-6.7,0-13.06,0.23-12.98,0.2c3.35-1.23,6.83-2.41,9.63-3.55
		c4.27-1.73,4.47-4.47,4.47-4.47c-1.12,1.12-3.77,1.75-6.7,2.23c-3.02,0.5-4.45,0.28-6.14,0c-0.02-0.04-0.13-0.17-0.05-0.21
		c1.44-0.58,5.48-2.23,7.3-3.14c5.37-2.69,5.58-3.35,5.58-3.35s-5.94,2.25-10.05,1.12c-0.92-0.25-5.65-1.34-6.31-1.9
		c-0.18-0.15-0.13-0.43,0.09-0.52c1.57-0.61,6.6-2.55,8.46-3.17c1.94-0.65,9.45-4.14,13.4-7.82c5.67-5.29,11.17-11.17,11.17-11.17
		l-12.28,7.82c-6.17,3.9-12.91,4.99-20.13,3.9l-12.26-2.79l-7.21-3.6c-0.66-0.33-0.61-1.28,0.08-1.54l7.13-2.67
		C1340.68,387.39,1332.29,386.77,1330.64,381.8z"/>
</g>
<g id="Слой_2">
	<circle class="st3" cx="47" cy="384" r="8"/>
	<circle class="st4" cx="40.5" cy="443.5" r="2.5"/>
	<circle class="st5" cx="42" cy="106" r="5"/>
	<circle class="st6" cx="96.5" cy="191.5" r="8.5"/>
	<circle class="st7" cx="117.5" cy="254.5" r="2.5"/>
	<circle class="st3" cx="69" cy="421" r="25"/>
	<circle class="st8" cx="-5" cy="735" r="28"/>
	<circle class="st9" cx="80.5" cy="652.5" r="12.5"/>
	<circle class="st10" cx="171" cy="623" r="5"/>
	<circle class="st11" cx="130.5" cy="954.5" r="35.5"/>
	<circle class="st12" cx="179" cy="917" r="12"/>
	<circle class="st13" cx="94" cy="920" r="4"/>
	<circle class="st11" cx="8" cy="971" r="11"/>
	<circle class="st14" cx="27.5" cy="910.5" r="44.5"/>
	<circle class="st11" cx="18.5" cy="954.5" r="3.5"/>
	<circle class="st14" cx="85.5" cy="856.5" r="13.5"/>
	<circle class="st15" cx="31" cy="1056" r="32"/>
	<circle class="st16" cx="59.5" cy="1080.5" r="13.5"/>
	<circle class="st17" cx="71" cy="777" r="26"/>
	<circle class="st6" cx="135" cy="220" r="28"/>
	<circle class="st18" cx="74.5" cy="618.5" r="14.5"/>
	<circle class="st18" cx="63.5" cy="537.5" r="45.5"/>
	<circle class="st9" cx="121" cy="597" r="39"/>
	<circle class="st19" cx="128.5" cy="519.5" r="4.5"/>
	<circle class="st20" cx="45" cy="330" r="15"/>
	<circle class="st21" cx="38" cy="794" r="3"/>
	<circle class="st17" cx="55" cy="733" r="8"/>
	<circle class="st8" cx="44.5" cy="729.5" r="8.5"/>
	<circle class="st22" cx="-5.5" cy="85.5" r="30.5"/>
	<circle class="st23" cx="-22" cy="386" r="50"/>
	<circle class="st24" cx="22.5" cy="37.5" r="9.5"/>
	<circle class="st25" cx="-2" cy="26" r="16"/>
	<circle class="st26" cx="80" cy="124" r="16"/>
	<circle class="st5" cx="69.5" cy="95.5" r="17.5"/>
	<circle class="st5" cx="64.5" cy="270.5" r="52.5"/>
</g>
<g id="Слой_5">
	<circle class="st3" cx="1875" cy="384" r="8"/>
	<circle class="st4" cx="1881.5" cy="443.5" r="2.5"/>
	<circle class="st5" cx="1880" cy="106" r="5"/>
	<circle class="st6" cx="1825.5" cy="191.5" r="8.5"/>
	<circle class="st7" cx="1804.5" cy="254.5" r="2.5"/>
	<circle class="st3" cx="1853" cy="421" r="25"/>
	<circle class="st8" cx="1927" cy="735" r="28"/>
	<circle class="st9" cx="1841.5" cy="652.5" r="12.5"/>
	<circle class="st10" cx="1751" cy="623" r="5"/>
	<circle class="st11" cx="1791.5" cy="954.5" r="35.5"/>
	<circle class="st12" cx="1743" cy="917" r="12"/>
	<circle class="st13" cx="1828" cy="920" r="4"/>
	<circle class="st11" cx="1914" cy="971" r="11"/>
	<circle class="st14" cx="1894.5" cy="910.5" r="44.5"/>
	<circle class="st11" cx="1903.5" cy="954.5" r="3.5"/>
	<circle class="st14" cx="1836.5" cy="856.5" r="13.5"/>
	<circle class="st15" cx="1891" cy="1056" r="32"/>
	<circle class="st16" cx="1862.5" cy="1080.5" r="13.5"/>
	<circle class="st17" cx="1851" cy="777" r="26"/>
	<circle class="st6" cx="1787" cy="220" r="28"/>
	<circle class="st18" cx="1847.5" cy="618.5" r="14.5"/>
	<circle class="st18" cx="1858.5" cy="537.5" r="45.5"/>
	<circle class="st9" cx="1801" cy="597" r="39"/>
	<circle class="st19" cx="1793.5" cy="519.5" r="4.5"/>
	<circle class="st20" cx="1877" cy="330" r="15"/>
	<circle class="st21" cx="1884" cy="794" r="3"/>
	<circle class="st17" cx="1867" cy="733" r="8"/>
	<circle class="st8" cx="1877.5" cy="729.5" r="8.5"/>
	<circle class="st22" cx="1927.5" cy="85.5" r="30.5"/>
	<circle class="st23" cx="1944" cy="386" r="50"/>
	<circle class="st24" cx="1899.5" cy="37.5" r="9.5"/>
	<circle class="st25" cx="1924" cy="26" r="16"/>
	<circle class="st26" cx="1842" cy="124" r="16"/>
	<circle class="st5" cx="1852.5" cy="95.5" r="17.5"/>
	<circle class="st5" cx="1857.5" cy="270.5" r="52.5"/>
</g>
</svg>
