<svg xmlns="http://www.w3.org/2000/svg" viewBox="0 0 1000 250"><defs><style>.cls-1,.cls-2{fill:#fff;}.cls-2{font-size:97px;font-family:Choplin-SemiBold, Choplin;font-weight:600;}.cls-3{letter-spacing:0.02em;}.cls-4{letter-spacing:-0.02em;}.cls-5{letter-spacing:0em;}.cls-6{letter-spacing:-0.03em;}.cls-7{letter-spacing:0em;}.cls-8{letter-spacing:-0.01em;}.cls-9{font-size:72px;font-family:Choplin-Bold, Choplin;font-weight:700;}.cls-10{letter-spacing:-0.03em;}</style></defs><title>Artboard 3</title><g id="Layer_6" data-name="Layer 6"><path class="cls-1" d="M81.64,76.81c-.73-2.2-.36-2.57,0-5.5C82,68.2,81.46,63,80.73,57.2c-.71-5.56-5.32-17.42-6-17.42S65.14,52.61,62.94,54.45c-.73.61-4.53,5.18-5.13,5.86a34.91,34.91,0,0,0-3.3,4,68.82,68.82,0,0,0-4.4,8.43,37.56,37.56,0,0,1-6.6-6.23c-2.89-3.66-5.13-9.9-5.86-8.8-1,1.52-4.57,10.4-4.77,18.69-.14,5.92,1.55,10.78-.37,15.77-.9,2.35-3.14,4.56-4.35,6.17l-.09.12c-.39.43-2.89,2.88-2.89,2.88a18,18,0,0,0-2.56,2.56,17,17,0,0,0-1.84,3.3s1.84-1.47,2.57-2.2l1.83-1.83c.53.5-1.95,2.67-2.93,5.5a48.21,48.21,0,0,0-1.83,10.63,53.23,53.23,0,0,1,3.66-9.53c1.33-2.5,3.71-4.46,4.17-5.17a.11.11,0,0,1,.2.07c-.09,1.14-1.13,4.89-1.43,8-.63,6.44.72,16.13.73,16.13s4.25-17,5.28-21.1a.13.13,0,0,1,.25,0c0,1.53-.82,8.27-.4,12.28a50.2,50.2,0,0,0,2.2,11s-1.41-8.8.73-15.76a38.33,38.33,0,0,1,4-9.17c.24-.37.64,1.15,1.1,1.83a21.94,21.94,0,0,0,3.66,4s-2.37-5.33-2.85-6.68a.13.13,0,0,1,.18-.15,37.54,37.54,0,0,1,7.81,5.73c1.1,1.1.36,2.56.73,4a7.74,7.74,0,0,0,4,4.77,16.87,16.87,0,0,0,7.7,1.1c4.82-1,12.78-6.22,16.09-8.48A.5.5,0,0,1,79,113c-.79,1.75-2.9,5.27-2.16,6,.14.15,2-.76,2.2-.73,1.47.2.55,3.12.73,6.6.21,4,2.31,8.21,2.22,9.29a.11.11,0,0,1-.19.07c-1.17-1.18-8.12-7.53-16.33-7.53a9.91,9.91,0,0,0-1.83,0c-.23.08-.35.63-.74.74-1.08.3-3.83.34-4.76.73-3.5,1.47-5.48,4-7.15,5.31A37.36,37.36,0,0,0,45.71,138c-.55.6-.78,1.43-1.46,2.2a62,62,0,0,0-4.4,6.6,8.63,8.63,0,0,0-.74,3.66c0,2.94-.2,5.84.74,6.24S41,156,41.31,156s.75,1.49,1.1,2.2c.42.86,1.18,0,1.47-.36.8-1,.78-2.8.73-4a28.3,28.3,0,0,1-.18-3.85c.1,0,.78,4.35.92,5s.21,1.34.36,1.84a2.1,2.1,0,0,0,.37.73c.73.73,1.77.63,1.83,0,.12-1.07.37-3.67.37-5.13,0-3.2.48-4.4.73-4.4s.05,8.29,1.84,8.06c.22,0,.43-.27.73-.73a6.1,6.1,0,0,1,1.1-1.47c.45-.39.5.15,1.1-.36a8.61,8.61,0,0,0,2.57-3.67c.36-1.83.62-5,1.46-6.23.74-1.1,4.4-5.5,4.4-5.5a44.37,44.37,0,0,0,0,8.06c.44,2.5,1.94,5,2.93,5.5,2.94,1.47,19.62,1.5,21.64,5.14.91,1.65-.06,5.27.36,8.43a32.36,32.36,0,0,0,2.52,8.66.29.29,0,0,1-.42.37,151.9,151.9,0,0,0-29-12.51c-7.78-2.49-11.31-3-14.11-1.29-1.77,1.11-4.49,2.84-5.87,5.13-.89,1.49-1.16,3.8-2.2,5.87-.73,1.47-1.75,1.25-2.56,1.83A12.49,12.49,0,0,0,32,177.45c-2.07,3.83-1.83,9.13-.18,13.38,2.71,6.94,9.13,9.8,11.73,11.37,5.5,3.3,10.08,2.86,13.57,4.76.84.46.37,1.47.37,3.3A4.68,4.68,0,0,0,60,213.93c2.18.71,3.74.4,4.77-.73s1.3.14,2.2,1.1a3.62,3.62,0,0,0,2.56,1.1c1.71-.13,2.4-1.46,4-1.47.91,0,2.2,1.83,4,1.83a11.78,11.78,0,0,0,6.23-2.56c1-.73,2.11-1.39,3.19-.89a23.54,23.54,0,0,0,8.54,2c6.27.33,13.6-2.23,15.59-3.49a40.69,40.69,0,0,0,8.43-7.59,1.62,1.62,0,0,1,1.39-.56c2.43.26,5.06,1.64,15.29,1,4.8-.29,13.2-3.66,20.9-4.76,5.68-.81,8.65-.13,9.16,1.46.17.52.95,2.21-.36,3.3-2.61,2.17-7.7,4-7.7,4l6.52-1.78a6.75,6.75,0,0,0,3.37-2.1,3.33,3.33,0,0,0,.74-1.26,5.57,5.57,0,0,0-.37-3.3c-1.18-2.32-4.4-4-4.4-4a71.81,71.81,0,0,0,8.44-6.23,48.82,48.82,0,0,0,5.13-5.87c.26-.26,2.21-3.3,3.66-3.66s4.77-1.47,4.77-1.47H181a16.67,16.67,0,0,0,3.3-7c1.1-5.5,6-11.62,7-12.46a39.93,39.93,0,0,1,5.5-4A14.28,14.28,0,0,0,192,156a18.79,18.79,0,0,0-4.4,3.3s0-8.31,1.46-11a46.12,46.12,0,0,1,3.67-4.76l-5.13,3.3a26.15,26.15,0,0,0-2.2-14.67c-1.73-3.62-3.64-5.88-3.67-8.43,0-4.84,4.4-8.43,4.4-8.43a13.32,13.32,0,0,0-7.33,7.33,45.53,45.53,0,0,0-5.5-6.23c-1.79-1.57-4.05-3.65-5.13-5.87A65.87,65.87,0,0,1,164.5,101v5.13a38.2,38.2,0,0,1-3.3-7.33,16.55,16.55,0,0,1-.73-7.33,7.75,7.75,0,0,1,4-5.14,24.27,24.27,0,0,1,7.33-2.56s-4.78-.38-7.7.73a16.88,16.88,0,0,0-4.4,2.93c0-3.3.22-9.13,4.59-13a20.1,20.1,0,0,1,10.26-4.77c.6-.09,9.31-1.26,16.13,4.4,5,4.19,7.89,12.28,7.89,12.28a52.33,52.33,0,0,0-.74-6.23,9.69,9.69,0,0,1-.36-3.3c.18-.18,1.15-.13,2.93.37a30.22,30.22,0,0,1,4.4,1.83S193.39,67.32,191,65.14a.18.18,0,0,1,.14-.31,32.17,32.17,0,0,0,8.37-.3c2-.32,6.05-3.12,6.05-3.12s-6,1.72-10.26,1.1c-5.77-.82-11.69-4.41-11.74-5.5l5.14-2.2a18.27,18.27,0,0,1-3.3.33,7.16,7.16,0,0,1-2.2-.33,16.14,16.14,0,0,1-1.61-.62,3.9,3.9,0,0,1-.35-.19c-.61-.38-3.54-2.12-3.54-2.12a17.81,17.81,0,0,1,1.47-1.1c2.17-1.52,4.76-3.67,4.76-3.67l-8.43,4c-5.13-2.2-11.73-4-19.07-2.2-9.39,2.35-13.67,6.49-14.66,7.33-4.77,4-12.69,15.66-14.3,20.16-1.83,5.14-1.83,7.7-1.83,7.7-.84.28-1.76-.51-2.57-.73a7.23,7.23,0,0,0-3.3,0,7.53,7.53,0,0,1,2.57.73,14.73,14.73,0,0,1,1.83,1.1c1.1,1.47.25,3.61,0,5.87-.73,6.6-.57,16.47,1.83,24.56,3.05,10.24,11,20.53,14.67,25.67,0,0-2.91,2.5-4,3.66-3.12,3.24-2.94,8.8-2.94,8.8a17.28,17.28,0,0,1,3.3-7c2.13-2.37,5.14-2.2,6.6-.37,2.36,2.95,4.4,8,4.4,14.67,0,4-1.83,13.93-6.6,19.43-1.33,1.53-10.93,8.48-14,10.33a.62.62,0,0,1-1-.6,68.48,68.48,0,0,0,.6-13c-.5-7.41-2.93-12.1-3.3-14.67-.63-4.42-3.66-22.73-4.4-35.19C119,120.14,113.27,113,109.14,108c-1.58-1.93-4.33-3.58-7-5.49-1.26-.92-3.25-1.46-3.66-2.94-.26-.94-.19-2.24-.37-3.3A6.65,6.65,0,0,0,97,93.31c-.37-.37-3.65,1.3-5.13,2.93-.77.85-.74,1.47-1.84,1.47-2.47,0-5.62-3-6.64-4a.07.07,0,0,1,.09-.11,24.75,24.75,0,0,0,4,2,7.8,7.8,0,0,0,4,0A12.94,12.94,0,0,1,87.88,94C86.21,93,86,92.21,86,92.21a26.09,26.09,0,0,0,8.07,0c2.15-.43,4.76-4,4.76-4A10,10,0,0,1,93.74,90c-2.2,0-4.29.07-4.26.06,1.1-.4,2.24-.79,3.16-1.16,1.4-.57,1.47-1.47,1.47-1.47a4.6,4.6,0,0,1-2.2.74,5.35,5.35,0,0,1-2,0s0-.06,0-.07c.47-.19,1.8-.73,2.39-1C94,86.19,94.11,86,94.11,86a6.64,6.64,0,0,1-3.3.36,12.82,12.82,0,0,1-2.07-.62.1.1,0,0,1,0-.17c.52-.2,2.17-.84,2.78-1a16,16,0,0,0,4.4-2.57c1.86-1.73,3.67-3.66,3.67-3.66l-4,2.56A9.36,9.36,0,0,1,89,82.13l-4-.92L82.58,80a.28.28,0,0,1,0-.51l2.34-.88S82.19,78.44,81.64,76.81Z"/><path class="cls-1" d="M918.36,76.81c.73-2.2.36-2.57,0-5.5-.39-3.11.18-8.33.91-14.11.71-5.56,5.32-17.42,6.05-17.42s9.54,12.83,11.74,14.67c.73.61,4.53,5.18,5.13,5.86a34.91,34.91,0,0,1,3.3,4,68.82,68.82,0,0,1,4.4,8.43,37.56,37.56,0,0,0,6.6-6.23c2.89-3.66,5.13-9.9,5.86-8.8,1,1.52,4.57,10.4,4.77,18.69.14,5.92-1.55,10.78.37,15.77.9,2.35,3.14,4.56,4.35,6.17l.09.12c.39.43,2.89,2.88,2.89,2.88a18,18,0,0,1,2.56,2.56,17,17,0,0,1,1.84,3.3s-1.84-1.47-2.57-2.2l-1.83-1.83c-.53.5,1.95,2.67,2.93,5.5a48.21,48.21,0,0,1,1.83,10.63,53.23,53.23,0,0,0-3.66-9.53c-1.33-2.5-3.71-4.46-4.17-5.17a.11.11,0,0,0-.2.07c.09,1.14,1.13,4.89,1.43,8,.63,6.44-.72,16.13-.73,16.13s-4.25-17-5.28-21.1a.13.13,0,0,0-.25,0c-.05,1.53.82,8.27.4,12.28a50.2,50.2,0,0,1-2.2,11s1.41-8.8-.73-15.76a38.33,38.33,0,0,0-4-9.17c-.24-.37-.64,1.15-1.1,1.83a21.94,21.94,0,0,1-3.66,4s2.37-5.33,2.85-6.68a.13.13,0,0,0-.18-.15,37.54,37.54,0,0,0-7.81,5.73c-1.1,1.1-.36,2.56-.73,4a7.74,7.74,0,0,1-4,4.77,16.87,16.87,0,0,1-7.7,1.1c-4.82-1-12.78-6.22-16.09-8.48a.5.5,0,0,0-.74.62c.79,1.75,2.9,5.27,2.16,6-.14.15-2-.76-2.2-.73-1.47.2-.55,3.12-.73,6.6-.21,4-2.31,8.21-2.22,9.29a.11.11,0,0,0,.19.07c1.17-1.18,8.12-7.53,16.33-7.53a9.91,9.91,0,0,1,1.83,0c.23.08.35.63.74.74,1.08.3,3.83.34,4.76.73,3.5,1.47,5.48,4,7.15,5.31a37.36,37.36,0,0,1,5.32,4.59c.55.6.78,1.43,1.46,2.2a62,62,0,0,1,4.4,6.6,8.63,8.63,0,0,1,.74,3.66c0,2.94.2,5.84-.74,6.24s-1.1-.74-1.46-.74-.75,1.49-1.1,2.2c-.42.86-1.18,0-1.47-.36-.8-1-.78-2.8-.73-4a28.3,28.3,0,0,0,.18-3.85c-.1,0-.78,4.35-.92,5s-.21,1.34-.36,1.84a2.1,2.1,0,0,1-.37.73c-.73.73-1.77.63-1.83,0-.12-1.07-.37-3.67-.37-5.13,0-3.2-.48-4.4-.73-4.4s0,8.29-1.84,8.06c-.22,0-.43-.27-.73-.73a6.1,6.1,0,0,0-1.1-1.47c-.45-.39-.5.15-1.1-.36a8.61,8.61,0,0,1-2.57-3.67c-.36-1.83-.62-5-1.46-6.23-.74-1.1-4.4-5.5-4.4-5.5a44.37,44.37,0,0,1,0,8.06c-.44,2.5-1.94,5-2.93,5.5-2.94,1.47-19.62,1.5-21.64,5.14-.91,1.65.06,5.27-.36,8.43a32.36,32.36,0,0,1-2.52,8.66.29.29,0,0,0,.42.37,151.9,151.9,0,0,1,29-12.51c7.78-2.49,11.31-3,14.11-1.29,1.77,1.11,4.49,2.84,5.87,5.13.89,1.49,1.16,3.8,2.2,5.87.73,1.47,1.75,1.25,2.56,1.83a12.49,12.49,0,0,1,3.49,4.22c2.07,3.83,1.83,9.13.18,13.38-2.71,6.94-9.13,9.8-11.73,11.37-5.5,3.3-10.08,2.86-13.57,4.76-.84.46-.37,1.47-.37,3.3a4.68,4.68,0,0,1-2.56,3.67c-2.18.71-3.74.4-4.77-.73s-1.3.14-2.2,1.1a3.62,3.62,0,0,1-2.56,1.1c-1.71-.13-2.4-1.46-4-1.47-.91,0-2.2,1.83-4,1.83a11.78,11.78,0,0,1-6.23-2.56c-.95-.73-2.11-1.39-3.19-.89a23.54,23.54,0,0,1-8.54,2c-6.27.33-13.6-2.23-15.59-3.49a40.69,40.69,0,0,1-8.43-7.59,1.62,1.62,0,0,0-1.39-.56c-2.43.26-5.06,1.64-15.29,1-4.8-.29-13.2-3.66-20.9-4.76-5.68-.81-8.65-.13-9.16,1.46-.17.52-.95,2.21.36,3.3,2.61,2.17,7.7,4,7.7,4l-6.52-1.78a6.75,6.75,0,0,1-3.37-2.1,3.33,3.33,0,0,1-.74-1.26,5.57,5.57,0,0,1,.37-3.3c1.18-2.32,4.4-4,4.4-4a71.81,71.81,0,0,1-8.44-6.23,48.82,48.82,0,0,1-5.13-5.87c-.26-.26-2.21-3.3-3.66-3.66s-4.77-1.47-4.77-1.47H819a16.67,16.67,0,0,1-3.3-7c-1.1-5.5-6-11.62-7-12.46a39.93,39.93,0,0,0-5.5-4A14.28,14.28,0,0,1,808,156a18.79,18.79,0,0,1,4.4,3.3s0-8.31-1.46-11a46.12,46.12,0,0,0-3.67-4.76l5.13,3.3a26.15,26.15,0,0,1,2.2-14.67c1.73-3.62,3.64-5.88,3.67-8.43.05-4.84-4.4-8.43-4.4-8.43a13.32,13.32,0,0,1,7.33,7.33,45.53,45.53,0,0,1,5.5-6.23c1.79-1.57,4-3.65,5.13-5.87A65.87,65.87,0,0,0,835.5,101v5.13a38.2,38.2,0,0,0,3.3-7.33,16.55,16.55,0,0,0,.73-7.33,7.75,7.75,0,0,0-4-5.14,24.27,24.27,0,0,0-7.33-2.56s4.78-.38,7.7.73a16.88,16.88,0,0,1,4.4,2.93c0-3.3-.22-9.13-4.59-13a20.1,20.1,0,0,0-10.26-4.77c-.6-.09-9.31-1.26-16.13,4.4-5,4.19-7.89,12.28-7.89,12.28a52.33,52.33,0,0,1,.74-6.23,9.69,9.69,0,0,0,.36-3.3c-.18-.18-1.15-.13-2.93.37a30.22,30.22,0,0,0-4.4,1.83S806.61,67.32,809,65.14a.18.18,0,0,0-.14-.31,32.17,32.17,0,0,1-8.37-.3c-2-.32-6-3.12-6-3.12s6,1.72,10.26,1.1c5.77-.82,11.69-4.41,11.74-5.5l-5.14-2.2a18.27,18.27,0,0,0,3.3.33,7.16,7.16,0,0,0,2.2-.33,16.14,16.14,0,0,0,1.61-.62,3.9,3.9,0,0,0,.35-.19c.61-.38,3.54-2.12,3.54-2.12a17.81,17.81,0,0,0-1.47-1.1c-2.17-1.52-4.76-3.67-4.76-3.67l8.43,4c5.13-2.2,11.73-4,19.07-2.2,9.39,2.35,13.67,6.49,14.66,7.33,4.77,4,12.69,15.66,14.3,20.16,1.83,5.14,1.83,7.7,1.83,7.7.84.28,1.76-.51,2.57-.73a7.23,7.23,0,0,1,3.3,0,7.53,7.53,0,0,0-2.57.73,14.73,14.73,0,0,0-1.83,1.1c-1.1,1.47-.25,3.61,0,5.87.73,6.6.57,16.47-1.83,24.56-3,10.24-11,20.53-14.67,25.67,0,0,2.91,2.5,4,3.66,3.12,3.24,2.94,8.8,2.94,8.8a17.28,17.28,0,0,0-3.3-7c-2.13-2.37-5.14-2.2-6.6-.37-2.36,2.95-4.4,8-4.4,14.67,0,4,1.83,13.93,6.6,19.43,1.33,1.53,10.93,8.48,13.95,10.33a.62.62,0,0,0,1-.6,68.48,68.48,0,0,1-.6-13c.5-7.41,2.93-12.1,3.3-14.67.63-4.42,3.66-22.73,4.4-35.19.42-7.27,6.13-14.39,10.26-19.44,1.58-1.93,4.33-3.58,7-5.49,1.26-.92,3.25-1.46,3.66-2.94.26-.94.19-2.24.37-3.3a6.65,6.65,0,0,1,1.1-2.93c.37-.37,3.65,1.3,5.13,2.93.77.85.74,1.47,1.84,1.47,2.47,0,5.62-3,6.64-4a.07.07,0,0,0-.09-.11,24.75,24.75,0,0,1-4,2,7.8,7.8,0,0,1-4,0A12.94,12.94,0,0,0,912.12,94c1.67-1,1.84-1.83,1.84-1.83a26.09,26.09,0,0,1-8.07,0c-2.15-.43-4.76-4-4.76-4A10,10,0,0,0,906.26,90c2.2,0,4.29.07,4.26.06-1.1-.4-2.24-.79-3.16-1.16-1.4-.57-1.47-1.47-1.47-1.47a4.6,4.6,0,0,0,2.2.74,5.35,5.35,0,0,0,2,0s0-.06,0-.07c-.47-.19-1.8-.73-2.39-1-1.77-.89-1.84-1.1-1.84-1.1a6.64,6.64,0,0,0,3.3.36,12.82,12.82,0,0,0,2.07-.62.1.1,0,0,0,0-.17c-.52-.2-2.17-.84-2.78-1a16,16,0,0,1-4.4-2.57c-1.86-1.73-3.67-3.66-3.67-3.66l4,2.56a9.36,9.36,0,0,0,6.6,1.29l4-.92L917.42,80a.28.28,0,0,0,0-.51l-2.34-.88S917.81,78.44,918.36,76.81Z"/><text class="cls-2" transform="translate(217.25 121.79)"><tspan class="cls-3">R</tspan><tspan class="cls-4" x="74.98" y="0">A</tspan><tspan class="cls-5" x="150.35" y="0">I</tspan><tspan class="cls-6" x="187.99" y="0">D</tspan><tspan class="cls-7" x="262" y="0">E</tspan><tspan class="cls-6" x="326.21" y="0">M</tspan><tspan class="cls-8" x="416.23" y="0">O</tspan><tspan x="492.66" y="0">T</tspan><tspan class="cls-9"><tspan class="cls-10" x="174.48" y="86.4">B</tspan><tspan x="224.38" y="86.4">LOG</tspan></tspan></text></g></svg>