<?xml version="1.0" encoding="UTF-8" standalone="no"?>
<!-- Created with Inkscape (http://www.inkscape.org/) -->

<svg
   xmlns:dc="http://purl.org/dc/elements/1.1/"
   xmlns:cc="http://creativecommons.org/ns#"
   xmlns:rdf="http://www.w3.org/1999/02/22-rdf-syntax-ns#"
   xmlns:svg="http://www.w3.org/2000/svg"
   xmlns="http://www.w3.org/2000/svg"
   xmlns:sodipodi="http://sodipodi.sourceforge.net/DTD/sodipodi-0.dtd"
   xmlns:inkscape="http://www.inkscape.org/namespaces/inkscape"
   version="1.1"
   id="svg3735"
   xml:space="preserve"
   width="1333.3333"
   height="1333.3333"
   viewBox="0 0 1333.3333 1333.3333"
   sodipodi:docname="Logo.svg"
   inkscape:version="0.92.4 (5da689c313, 2019-01-14)"><metadata
     id="metadata3741"><rdf:RDF><cc:Work
         rdf:about=""><dc:format>image/svg+xml</dc:format><dc:type
           rdf:resource="http://purl.org/dc/dcmitype/StillImage" /><dc:title></dc:title></cc:Work></rdf:RDF></metadata><defs
     id="defs3739"><clipPath
       clipPathUnits="userSpaceOnUse"
       id="clipPath3751"><path
         d="M 0,1000 H 1000 V 0 H 0 Z"
         id="path3749"
         inkscape:connector-curvature="0" /></clipPath></defs><sodipodi:namedview
     pagecolor="#ffffff"
     bordercolor="#666666"
     borderopacity="1"
     objecttolerance="10"
     gridtolerance="10"
     guidetolerance="10"
     inkscape:pageopacity="0"
     inkscape:pageshadow="2"
     inkscape:window-width="640"
     inkscape:window-height="480"
     id="namedview3737"
     showgrid="false"
     inkscape:zoom="0.17700001"
     inkscape:cx="666.66663"
     inkscape:cy="666.66663"
     inkscape:window-x="0"
     inkscape:window-y="0"
     inkscape:window-maximized="0"
     inkscape:current-layer="g3743" /><g
     id="g3743"
     inkscape:groupmode="layer"
     inkscape:label="LOGO FOX2"
     transform="matrix(1.3333333,0,0,-1.3333333,0,1333.3333)"><g
       id="g3745"><g
         id="g3747"
         clip-path="url(#clipPath3751)"><g
           id="g3753"
           transform="translate(370.8169,721.1001)"><path
             d="m 0,0 c -3.117,9.35 -1.559,10.908 0,23.375 1.654,13.237 -0.77,35.396 -3.896,59.996 -3.001,23.616 -22.596,74.021 -25.712,74.021 -2.798,0 -40.517,-54.542 -49.867,-62.334 -3.105,-2.587 -19.273,-22.026 -21.817,-24.933 -10.908,-12.467 -11.967,-14.033 -14.025,-17.142 -9.078,-13.712 -18.7,-35.841 -18.7,-35.841 0,0 -16.282,11.644 -28.05,26.491 -12.306,15.526 -21.817,42.075 -24.933,37.4 -4.322,-6.483 -19.4,-44.212 -20.259,-79.475 -0.612,-25.146 6.597,-45.806 -1.558,-67.008 -3.848,-10.005 -13.346,-19.391 -18.509,-26.238 -0.131,-0.174 -0.256,-0.327 -0.4,-0.489 -1.632,-1.836 -12.257,-12.231 -12.257,-12.231 -0.78,-0.746 -6.942,-5.62 -10.909,-10.909 -4.675,-6.233 -7.792,-14.025 -7.792,-14.025 0,0 7.792,6.234 10.909,9.35 3.386,3.386 7.792,7.792 7.792,7.792 2.237,-2.117 -8.299,-11.34 -12.467,-23.375 -6.237,-18.008 -7.792,-45.192 -7.792,-45.192 0,0 6.052,22.543 15.583,40.517 5.628,10.613 15.747,18.943 17.735,21.954 0.254,0.384 0.854,0.159 0.817,-0.3 -0.388,-4.841 -4.793,-20.753 -6.085,-34.121 -2.643,-27.353 3.08,-68.556 3.117,-68.566 0.052,-0.015 18.06,72.188 22.429,89.705 0.153,0.614 1.05,0.516 1.071,-0.116 0.208,-6.47 -3.485,-35.139 -1.684,-52.189 3.155,-29.868 9.35,-46.75 9.35,-46.75 0,0 -5.985,37.426 3.117,67.008 6.233,20.258 14.025,34.283 17.142,38.958 1.048,1.572 2.742,-4.892 4.675,-7.791 6.233,-9.351 15.583,-17.142 15.583,-17.142 0,0 -10.068,22.654 -12.108,28.375 -0.164,0.457 0.318,0.874 0.744,0.641 4.313,-2.361 20.435,-11.595 33.181,-24.341 4.675,-4.675 1.558,-10.908 3.117,-17.142 1.821,-7.286 8.32,-16.285 17.141,-20.258 13.517,-6.089 30.888,-5.066 32.725,-4.675 20.5,4.363 54.329,26.426 68.376,36.035 1.775,1.214 4.022,-0.671 3.139,-2.631 -3.359,-7.46 -12.312,-22.408 -9.182,-25.612 0.608,-0.623 8.486,3.236 9.35,3.116 6.268,-0.866 2.345,-13.271 3.117,-28.05 0.897,-17.154 9.809,-34.891 9.434,-39.492 -0.033,-0.4 -0.511,-0.58 -0.793,-0.297 -4.971,4.999 -34.508,31.997 -69.416,31.997 -3.117,0 -6.352,0.497 -7.791,0 -0.967,-0.332 -1.478,-2.659 -3.117,-3.116 -4.599,-1.282 -16.309,-1.45 -20.258,-3.117 -14.855,-6.27 -23.28,-16.776 -30.388,-22.595 -5.207,-4.263 -12.437,-8.548 -22.596,-19.48 -2.368,-2.548 -3.311,-6.085 -6.233,-9.349 -3.357,-3.751 -17.027,-24.286 -18.7,-28.051 -2.29,-5.151 -3.117,-10.084 -3.117,-15.583 0,-12.467 -0.864,-24.824 3.117,-26.491 3.428,-1.437 4.675,3.116 6.233,3.116 1.811,0 3.183,-6.321 4.675,-9.35 1.786,-3.627 5.006,0 6.233,1.558 3.396,4.309 3.32,11.87 3.117,17.142 -0.319,8.307 -1.499,16.159 -0.779,16.363 0.404,0.114 3.328,-18.477 3.896,-21.038 0.543,-2.451 0.922,-5.699 1.558,-7.791 0.654,-2.153 1.558,-3.117 1.558,-3.117 3.117,-3.117 7.506,-2.702 7.792,0 0.483,4.564 1.558,15.583 1.558,21.816 0,13.572 2.029,18.7 3.117,18.7 1.558,0 0.216,-35.25 7.792,-34.283 0.955,0.122 1.86,1.141 3.116,3.116 1.113,1.75 2.483,4.354 4.676,6.234 1.936,1.661 2.112,-0.617 4.674,1.558 4.601,3.904 10.019,11.137 10.909,15.583 1.558,7.792 2.669,21.147 6.233,26.492 3.117,4.675 18.7,23.375 18.7,23.375 0,0 -1.972,-23.139 0,-34.283 1.88,-10.621 8.238,-21.261 12.467,-23.375 12.466,-6.233 83.363,-6.375 91.941,-21.816 3.896,-7.013 -0.235,-22.404 1.559,-35.842 2.18,-16.33 7.808,-30.386 10.697,-36.803 0.505,-1.12 -0.721,-2.218 -1.783,-1.599 -12.576,7.318 -57.783,32.27 -123.452,53.206 -33.082,10.546 -48.1,12.894 -59.996,5.454 -7.505,-4.695 -19.078,-12.082 -24.933,-21.817 -3.791,-6.303 -4.942,-16.118 -9.35,-24.933 -3.117,-6.234 -7.437,-5.33 -10.908,-7.791 -5.959,-4.225 -10.926,-10.736 -14.804,-17.921 -8.797,-16.299 -7.817,-38.817 -0.78,-56.88 11.493,-29.5 38.793,-41.664 49.867,-48.308 23.375,-14.025 42.829,-12.169 57.658,-20.258 3.576,-1.952 1.559,-6.234 1.559,-14.026 0,-4.715 4.997,-13.653 10.908,-15.583 9.252,-3.019 15.87,-1.686 20.258,3.117 3.941,4.313 5.535,-0.623 9.351,-4.675 2.726,-2.895 7.494,-4.936 10.908,-4.675 7.236,0.553 10.195,6.19 17.141,6.233 3.874,0.025 9.35,-7.792 17.142,-7.792 7.636,0 18.513,4.783 26.492,10.909 4.013,3.08 8.946,5.895 13.539,3.773 7.125,-3.292 19.37,-7.549 36.327,-8.448 26.636,-1.413 57.778,9.482 66.23,14.804 16.214,10.21 30.433,25.914 35.849,32.26 1.46,1.711 3.662,2.616 5.899,2.379 10.332,-1.096 21.504,-6.957 64.998,-4.251 20.413,1.269 56.1,15.583 88.824,20.258 24.152,3.45 36.797,0.532 38.959,-6.234 0.706,-2.212 4.012,-9.389 -1.558,-14.024 -11.085,-9.225 -32.725,-17.142 -32.725,-17.142 l 27.729,7.563 c 5.54,1.511 10.617,4.517 14.33,8.896 1.484,1.749 2.707,3.618 3.132,5.358 1.383,5.671 -0.57,12.073 -1.558,14.024 -5.011,9.9 -18.7,17.143 -18.7,17.143 0,0 19.884,12.312 35.841,26.491 11.112,9.873 19.299,22.415 21.817,24.933 1.114,1.114 9.413,14.041 15.584,15.584 6.233,1.558 20.258,6.233 20.258,6.233 h -21.817 c 0,0 10.518,12.07 14.025,29.608 4.675,23.375 25.662,49.387 29.609,52.984 10.172,9.268 23.375,17.141 23.375,17.141 0,0 -10.379,-1.004 -20.259,-6.233 -8.567,-4.535 -16.643,-11.626 -18.7,-14.025 0,0 0.072,35.35 6.233,46.75 3.244,6.003 15.583,20.258 15.583,20.258 l -21.816,-14.025 c 0,0 5.789,30.6 -9.35,62.334 -7.337,15.378 -15.468,25.005 -15.584,35.841 -0.217,20.575 18.701,35.842 18.701,35.842 -4.744,-1.944 -12.821,-5.988 -20.258,-14.025 -5.878,-6.35 -9.13,-12.788 -10.909,-17.142 -5.105,5.974 -11.953,16.498 -23.375,26.492 -7.587,6.639 -17.212,15.492 -21.817,24.933 -9.73,19.955 -15.583,40.517 -15.583,40.517 v -21.817 c 0,0 -8.018,13.004 -14.025,31.167 -3.199,9.673 -4.675,21.816 -3.116,31.167 1.534,9.207 8.55,16.86 17.141,21.816 14.318,8.261 31.167,10.909 31.167,10.909 0,0 -20.32,1.605 -32.725,-3.117 -9.028,-3.436 -18.701,-12.467 -18.701,-12.467 0,14.025 0.931,38.804 19.48,55.321 17.147,15.269 36.218,19.143 43.634,20.258 2.547,0.384 39.542,5.366 68.566,-18.699 21.453,-17.789 33.504,-52.205 33.504,-52.205 0,0 -0.758,14.417 -3.116,26.492 -1.533,7.84 -2.172,13.411 -1.559,14.025 0.774,0.773 4.923,0.565 12.467,-1.559 7.655,-2.155 18.7,-7.791 18.7,-7.791 0,0 -48.634,49.681 -58.795,58.969 -0.553,0.506 -0.113,1.42 0.626,1.294 5.592,-0.952 20.769,-1.046 35.573,1.291 8.465,1.337 25.712,13.246 25.712,13.246 0,0 -25.321,-7.298 -43.633,-4.675 C 458.56,64.288 433.4,79.551 433.216,84.15 l 21.817,9.35 c 0,0 -7.343,-1.473 -14.023,-1.397 -3.088,0.035 -6.365,0.401 -9.352,1.397 -3.145,1.048 -5.584,2.097 -6.845,2.67 -0.51,0.233 -0.996,0.493 -1.474,0.788 -2.58,1.598 -15.056,9.009 -15.056,9.009 0,0 1.622,1.447 6.233,4.675 9.239,6.467 20.259,15.583 20.259,15.583 l -35.842,-17.142 c -21.816,9.35 -49.866,17.142 -81.033,9.35 C 277.987,108.455 259.764,90.818 255.567,87.267 235.308,70.125 201.627,20.7 194.792,1.558 187,-20.258 187,-31.167 187,-31.167 c -3.574,-1.191 -7.457,2.196 -10.909,3.117 -6.944,1.852 -14.024,0 -14.024,0 0,0 5.952,-0.462 10.908,-3.117 2.998,-1.606 7.34,-4.072 7.791,-4.675 4.676,-6.233 1.068,-15.325 0,-24.933 -3.116,-28.05 -2.433,-69.998 7.792,-104.409 12.936,-43.528 46.75,-87.266 62.333,-109.083 0,0 -12.385,-10.634 -17.141,-15.583 -13.237,-13.771 -12.467,-37.4 -12.467,-37.4 0,0 3.766,18.22 14.025,29.608 9.051,10.046 21.817,9.35 28.05,1.559 10.022,-12.529 18.7,-33.897 18.7,-62.334 0,-17.141 -7.792,-59.216 -28.05,-82.591 -5.657,-6.528 -46.488,-36.053 -59.308,-43.941 -1.887,-1.161 -4.282,0.349 -4.048,2.552 1.652,15.602 4.11,32.963 2.581,55.413 -2.144,31.47 -12.467,51.426 -14.025,62.334 -2.682,18.774 -15.583,96.616 -18.7,149.6 -1.817,30.896 -26.086,61.13 -43.633,82.592 -6.73,8.231 -18.398,15.251 -29.608,23.375 -5.37,3.891 -13.84,6.186 -15.584,12.466 -1.108,3.99 -0.776,9.551 -1.558,14.025 -1.091,6.237 -3.241,11.032 -4.675,12.467 -1.558,1.558 -15.537,-5.535 -21.817,-12.467 -3.279,-3.619 -3.116,-6.233 -7.792,-6.233 -10.511,0 -23.928,12.604 -28.238,17.206 -0.237,0.252 0.061,0.642 0.36,0.468 3.465,-2.022 11.4,-6.485 16.97,-8.324 8.023,-2.65 17.142,0 17.142,0 0,0 -7.792,1.558 -15.584,6.233 -7.075,4.245 -7.791,7.792 -7.791,7.792 4.715,-0.276 18.7,-3.117 34.283,0 9.169,1.834 20.258,17.141 20.258,17.141 0,0 -10.555,-7.791 -21.816,-7.791 -9.35,0 -18.222,-0.314 -18.117,-0.276 4.676,1.714 9.533,3.37 13.442,4.951 5.955,2.409 6.233,6.233 6.233,6.233 -1.558,-1.558 -5.268,-2.445 -9.35,-3.117 -4.214,-0.692 -6.205,-0.387 -8.563,0 -0.025,0.058 -0.184,0.243 -0.064,0.292 2.004,0.81 7.646,3.114 10.185,4.384 7.498,3.749 7.792,4.675 7.792,4.675 0,0 -8.288,-3.137 -14.025,-1.559 -1.285,0.354 -7.884,1.873 -8.812,2.652 -0.249,0.21 -0.18,0.604 0.124,0.721 2.189,0.848 9.214,3.555 11.805,4.419 2.713,0.904 13.19,5.771 18.7,10.908 7.917,7.382 15.583,15.584 15.583,15.584 L 59.216,-17.142 c -8.614,-5.441 -18.01,-6.96 -28.086,-5.448 l -17.105,3.89 -10.058,5.029 c -0.917,0.459 -0.847,1.79 0.113,2.15 l 9.945,3.729 C 14.025,-7.792 2.311,-6.933 0,0"
             style="fill:#ffffff;fill-opacity:1;fill-rule:nonzero;stroke:none"
             id="path3755"
             inkscape:connector-curvature="0" /></g></g></g></g></svg>